<?xml version="1.0" encoding="utf-8" ?><svg xmlns="http://www.w3.org/2000/svg" xmlns:xlink="http://www.w3.org/1999/xlink" width="715" height="689" viewBox="0 0 715 689"><path fill="#101010" d="M80.509 2.25738C105.276 1.58256 130.223 2.16634 155.004 2.17225L297.931 2.21897L395.901 2.22748L426.87 2.20644C433.99 2.20012 441.131 2.05234 448.239 2.50738C455.955 3.00129 463.266 4.24884 470.552 6.93095C490.4 14.2378 506.817 29.9208 515.659 49.0314C519.284 56.8666 521.476 64.8708 522.394 73.4489C523.253 81.4713 523.066 89.5934 523.109 97.6535L523.212 130.143L523.115 170.79C523.108 177.049 523.42 183.387 523.183 189.635C523.13 191.053 523.015 192.485 522.537 193.83C521.457 196.864 519.258 199.769 517.639 202.553C514.473 207.996 511.368 213.519 508.35 219.046C500.936 232.623 494.046 246.498 486.836 260.186C479.736 273.666 471.695 287.405 466.452 301.723C466.584 299.604 466.67 297.482 466.709 295.359C466.904 279.779 466.635 264.143 466.626 248.557L466.631 151.231L466.655 106.334C466.673 98.0375 467.389 89.0971 466.212 80.8964C465.436 75.3836 462.913 70.2645 459.014 66.2902C454.786 62.0488 448.747 58.776 442.768 58.0303C437.984 57.4336 433.016 57.7987 428.199 57.8622C422.151 57.911 416.103 57.9271 410.055 57.9105L338.24 57.9074L91.9797 57.7257C82.3543 57.6708 74.1582 58.731 67.0514 65.8634C62.5156 70.4156 59.6949 76.7311 59.0092 83.0999C58.4251 88.5253 58.8986 94.3823 58.9444 99.8452L59.0596 129.768L59.0447 233.786L58.9803 587.343C58.9232 599.921 57.7954 612.947 67.4016 622.653C71.2164 626.507 76.6696 629.52 82.0789 630.268C85.8781 630.794 89.8716 630.594 93.7042 630.59L111.115 630.57L171.545 630.566L377.885 630.593C379.77 637.458 382.051 643.578 386.72 649.083C394.142 657.834 405.016 662.933 416.397 663.795C424.019 664.373 432.552 662.741 439.572 659.769C447.443 656.435 454.969 651.209 461.954 646.327C477.35 635.565 491.797 623.628 506.193 611.578C511.841 606.849 517.69 602.366 523.262 597.543C523.201 603.32 523.356 609.389 522.701 615.126C521.027 629.804 514.844 644.495 505.773 656.107C492.875 672.498 474.003 683.108 453.294 685.613C446.633 686.386 439.908 686.059 433.216 686.025C424.273 685.973 415.33 685.979 406.386 686.042L293.879 685.984L139.428 686.009L99.6754 685.991C90.2817 686.033 80.8239 686.557 71.482 685.346C57.2953 683.45 43.8996 677.703 32.7517 668.729C16.1361 655.596 5.60038 636.253 3.581 615.174C2.41479 603.947 3.0191 592.468 3.02202 581.186L3.02219 524.044L3.02473 337.677L3.02533 158.993L3.04877 104.231C3.05948 93.7554 2.47258 82.8254 3.65598 72.4157C5.32697 57.7169 11.9464 42.7732 21.3245 31.329C31.0681 19.4388 45.0081 9.72828 59.8699 5.59954C66.6737 3.70937 73.5125 2.92827 80.509 2.25738Z"/><path fill="#101010" d="M550.237 226.532C551.459 226.562 552.502 226.746 553.653 227.174C558.17 228.85 562.587 231.43 566.881 233.612C576.224 238.368 585.519 243.219 594.764 248.163L626.215 264.779C633.75 268.755 642.115 272.759 649.027 277.733C650.902 279.083 652.041 280.452 653.007 282.547C652.603 284.852 652.15 287.142 651.193 289.291C648.389 295.585 644.995 301.703 641.935 307.885L620.757 350.443L563.27 466.173L537.607 518.148L530.234 533.198C528.534 536.694 526.984 540.461 524.73 543.643C520.394 549.763 512.174 556.277 506.434 561.347C493.857 572.456 480.795 583.182 468.497 594.585C458.068 603.607 447.36 612.425 437.216 621.765C433.61 625.085 431.12 630.183 427.015 632.861C423.855 634.923 419.778 635.5 416.125 634.671C412.667 633.887 409.065 631.725 407.262 628.595C404.924 624.536 406.057 616.482 406.252 611.828C406.816 598.34 408.494 584.82 409.823 571.388L414.956 519.096C415.725 511.849 416.181 504.565 416.94 497.311C417.292 493.939 417.482 490.384 418.431 487.12C420.245 480.882 425.594 471.875 428.646 465.749L448.554 425.214C470.098 380.745 492.143 336.521 514.686 292.551L536.106 249.911C539.344 243.546 542.438 237.025 545.957 230.814C547.158 228.695 548.083 227.71 550.237 226.532ZM443.788 575.251C450.198 570.274 455.69 563.629 461.634 558.055C466.37 553.214 471.184 548.45 476.075 543.765C478.686 541.221 481.511 538.717 483.853 535.922C475.588 530.689 466.51 526.346 457.817 521.842C455.103 520.435 452.471 518.566 449.704 517.328C448.378 520.372 448.284 529.191 447.893 532.996C446.447 547.066 444.75 561.137 443.788 575.251Z"/><path fill="#101010" d="M148.219 165.217C153.282 164.95 158.423 165.144 163.495 165.149L190.056 165.141L275.516 165.102L342.828 165.086L364.181 165.093C368.488 165.098 372.876 164.933 377.167 165.282C381.782 165.658 385.034 166.677 388.925 169.238C394.902 173.172 399.191 179.878 400.544 186.897C401.867 193.755 400.167 201.207 396.209 206.922C391.509 213.71 385.088 216.99 377.128 218.432C360.934 219.01 344.535 218.514 328.324 218.514L234.714 218.515L177.881 218.52C168.635 218.53 157.332 219.213 148.383 218.358C144.14 217.953 139.2 216.061 135.719 213.599C129.868 209.463 125.682 203.291 124.557 196.171C123.4 188.856 125.428 181.417 129.792 175.481C134.345 169.29 140.753 166.301 148.219 165.217Z"/><path fill="#101010" d="M147.394 306.893C150.713 306.566 154.197 306.78 157.541 306.777L176.95 306.777L238.152 306.785L313.35 306.774L337.753 306.766C342.464 306.765 347.261 306.579 351.958 306.914C356.58 307.244 359.831 308.124 363.675 310.742C369.833 314.934 374.07 320.939 375.424 328.307C376.665 335.21 375.098 342.322 371.072 348.065C366.623 354.321 360.054 358.23 352.53 359.457C337.909 360.017 323.139 359.581 308.499 359.582L225.471 359.589L174.798 359.605C166.55 359.608 157.746 360.262 149.576 359.418C144.206 358.864 139.559 357.247 135.176 354.068C129.209 349.74 125.451 343.204 124.337 335.951C123.307 329.253 125.299 322.594 129.349 317.218C133.792 311.322 140.157 307.937 147.394 306.893Z"/><path fill="#101010" d="M149.116 446.557C154.349 445.754 160.577 446.373 165.92 446.384L200.793 446.401L263.854 446.401L283.274 446.416C287.531 446.42 291.913 446.235 296.146 446.686C301.12 447.217 305.741 448.841 309.796 451.796C315.466 455.89 319.215 462.123 320.175 469.049C321.199 475.983 319.563 483.276 315.292 488.899C310.28 495.497 303.12 498.647 295.087 499.701C286.17 500.582 276.73 500.056 267.755 500.055L218.248 500.04L174.101 500.069C165.785 500.073 157.05 500.628 148.799 499.579C143.718 498.933 138.834 497.179 134.728 494.094C128.945 489.749 125.282 483.696 124.279 476.523C123.349 469.531 125.255 462.457 129.572 456.879C134.449 450.57 141.368 447.52 149.116 446.557Z"/><path fill="#101010" d="M567.597 191.905C568.771 188.548 570.759 185.309 572.429 182.172L580.692 166.572C587.171 153.947 593.722 141.36 600.346 128.812C605.842 118.404 611.364 107.109 618.671 97.851C622.187 93.3971 626.934 89.5554 632.034 87.0696C644.706 80.8937 661.245 83.9353 673.963 88.4412C688.463 93.5788 702.179 103.382 709.543 117.175C711.688 121.192 712.875 125.533 714.854 129.591L715 129.883L715 148.584C712.794 152.833 711.654 157.8 709.621 162.194C702.677 177.198 694.937 191.929 687.542 206.719C682.904 215.995 678.679 225.681 673.642 234.734C672.462 236.855 671.136 239.419 669.309 241.058C667.71 242.493 665.518 243.439 663.343 243.285C661.217 243.135 659.035 242.357 657.102 241.488C652.526 239.43 648.064 236.871 643.608 234.561L616.092 220.167L590.859 207.044C586.073 204.539 581.151 202.159 576.547 199.333C573.184 197.269 570.113 194.961 567.597 191.905Z"/></svg>